<?xml version="1.0" standalone="no"?>
<!DOCTYPE svg PUBLIC "-//W3C//DTD SVG 1.1//EN" "http://www.w3.org/Graphics/SVG/1.1/DTD/svg11.dtd">
<svg width="132mm" height="152mm" viewBox="-70 -76 132 152" xmlns="http://www.w3.org/2000/svg" version="1.1">
<title>OpenSCAD Model</title>
<path d="
M 61.4,-75.4 L -52.9596,-75.4 L -53.8845,-75.3758 L -54.7665,-75.3064 L -55.6434,-75.1909 L -56.5137,-75.0296
 L -57.3736,-74.8232 L -58.2222,-74.5718 L -59.0559,-74.2766 L -59.8736,-73.9379 L -60.6719,-73.5571 L -61.4495,-73.1349
 L -62.2037,-72.6727 L -62.933,-72.1714 L -63.6349,-71.6329 L -64.3075,-71.0585 L -64.9493,-70.4493 L -65.5585,-69.8075
 L -66.1329,-69.1349 L -66.6714,-68.433 L -67.1727,-67.7037 L -67.6349,-66.9495 L -68.0571,-66.1719 L -68.4379,-65.3736
 L -68.7766,-64.5559 L -69.0718,-63.7222 L -69.3232,-62.8736 L -69.5296,-62.0137 L -69.6909,-61.1434 L -69.8064,-60.2665
 L -69.8758,-59.3845 L -69.9,-58.4596 L -69.9,58.4596 L -69.8758,59.3845 L -69.8064,60.2665 L -69.6909,61.1434
 L -69.5296,62.0137 L -69.3232,62.8736 L -69.0718,63.7222 L -68.7766,64.5559 L -68.4379,65.3736 L -68.0571,66.1719
 L -67.6349,66.9495 L -67.1727,67.7037 L -66.6714,68.433 L -66.1329,69.1349 L -65.5585,69.8075 L -64.9493,70.4493
 L -64.3075,71.0585 L -63.6349,71.6329 L -62.933,72.1714 L -62.2037,72.6727 L -61.4495,73.1349 L -60.6719,73.5571
 L -59.8736,73.9379 L -59.0559,74.2766 L -58.2222,74.5718 L -57.3736,74.8232 L -56.5137,75.0296 L -55.6434,75.1909
 L -54.7665,75.3064 L -53.8845,75.3758 L -52.9596,75.4 L 61.4,75.4 z
M 54.4163,-66.9022 L 54.3327,-66.9088 L 54.2497,-66.9197 L 54.1673,-66.935 L 54.0859,-66.9545 L 54.0056,-66.9783
 L 53.9266,-67.0063 L 53.8492,-67.0383 L 53.7736,-67.0744 L 53.7,-67.1143 L 53.6286,-67.1581 L 53.5595,-67.2056
 L 53.4931,-67.2566 L 53.4294,-67.311 L 53.3686,-67.3686 L 53.311,-67.4294 L 53.2566,-67.4931 L 53.2056,-67.5595
 L 53.1581,-67.6286 L 53.1143,-67.7 L 53.0744,-67.7736 L 53.0383,-67.8492 L 53.0063,-67.9266 L 52.9783,-68.0056
 L 52.9545,-68.0859 L 52.935,-68.1673 L 52.9197,-68.2497 L 52.9088,-68.3327 L 52.9022,-68.4163 L 52.9,-68.5
 L 52.9022,-68.5837 L 52.9088,-68.6672 L 52.9197,-68.7503 L 52.935,-68.8327 L 52.9545,-68.9141 L 52.9783,-68.9944
 L 53.0063,-69.0734 L 53.0383,-69.1508 L 53.0744,-69.2264 L 53.1143,-69.3 L 53.1581,-69.3714 L 53.2056,-69.4404
 L 53.2566,-69.5069 L 53.311,-69.5706 L 53.3686,-69.6314 L 53.4294,-69.689 L 53.4931,-69.7434 L 53.5595,-69.7944
 L 53.6286,-69.8419 L 53.7,-69.8856 L 53.7736,-69.9256 L 53.8492,-69.9617 L 53.9266,-69.9937 L 54.0056,-70.0217
 L 54.0859,-70.0455 L 54.1673,-70.065 L 54.2497,-70.0803 L 54.3327,-70.0912 L 54.4163,-70.0978 L 54.5,-70.1
 L 54.5837,-70.0978 L 54.6672,-70.0912 L 54.7503,-70.0803 L 54.8327,-70.065 L 54.9141,-70.0455 L 54.9944,-70.0217
 L 55.0734,-69.9937 L 55.1508,-69.9617 L 55.2264,-69.9256 L 55.3,-69.8856 L 55.3714,-69.8419 L 55.4404,-69.7944
 L 55.5069,-69.7434 L 55.5706,-69.689 L 55.6314,-69.6314 L 55.689,-69.5706 L 55.7434,-69.5069 L 55.7944,-69.4404
 L 55.8419,-69.3714 L 55.8856,-69.3 L 55.9256,-69.2264 L 55.9617,-69.1508 L 55.9937,-69.0734 L 56.0217,-68.9944
 L 56.0455,-68.9141 L 56.065,-68.8327 L 56.0803,-68.7503 L 56.0912,-68.6672 L 56.0978,-68.5837 L 56.1,-68.5
 L 56.0978,-68.4163 L 56.0912,-68.3327 L 56.0803,-68.2497 L 56.065,-68.1673 L 56.0455,-68.0859 L 56.0217,-68.0056
 L 55.9937,-67.9266 L 55.9617,-67.8492 L 55.9256,-67.7736 L 55.8856,-67.7 L 55.8419,-67.6286 L 55.7944,-67.5595
 L 55.7434,-67.4931 L 55.689,-67.4294 L 55.6314,-67.3686 L 55.5706,-67.311 L 55.5069,-67.2566 L 55.4404,-67.2056
 L 55.3714,-67.1581 L 55.3,-67.1143 L 55.2264,-67.0744 L 55.1508,-67.0383 L 55.0734,-67.0063 L 54.9944,-66.9783
 L 54.9141,-66.9545 L 54.8327,-66.935 L 54.7503,-66.9197 L 54.6672,-66.9088 L 54.5837,-66.9022 L 54.5,-66.9
 z
M -58.0837,-61.9022 L -58.1672,-61.9088 L -58.2503,-61.9197 L -58.3327,-61.935 L -58.4141,-61.9545 L -58.4944,-61.9783
 L -58.5734,-62.0063 L -58.6508,-62.0383 L -58.7264,-62.0744 L -58.8,-62.1143 L -58.8714,-62.1581 L -58.9404,-62.2056
 L -59.0069,-62.2566 L -59.0706,-62.311 L -59.1314,-62.3686 L -59.189,-62.4294 L -59.2434,-62.4931 L -59.2944,-62.5595
 L -59.3419,-62.6286 L -59.3856,-62.7 L -59.4256,-62.7736 L -59.4617,-62.8492 L -59.4937,-62.9266 L -59.5217,-63.0056
 L -59.5455,-63.0859 L -59.565,-63.1673 L -59.5803,-63.2497 L -59.5912,-63.3327 L -59.5978,-63.4163 L -59.6,-63.5
 L -59.5978,-63.5837 L -59.5912,-63.6672 L -59.5803,-63.7503 L -59.565,-63.8327 L -59.5455,-63.9141 L -59.5217,-63.9944
 L -59.4937,-64.0734 L -59.4617,-64.1508 L -59.4256,-64.2264 L -59.3856,-64.3 L -59.3419,-64.3714 L -59.2944,-64.4404
 L -59.2434,-64.5069 L -59.189,-64.5706 L -59.1314,-64.6314 L -59.0706,-64.689 L -59.0069,-64.7434 L -58.9404,-64.7944
 L -58.8714,-64.8419 L -58.8,-64.8856 L -58.7264,-64.9256 L -58.6508,-64.9617 L -58.5734,-64.9937 L -58.4944,-65.0217
 L -58.4141,-65.0455 L -58.3327,-65.065 L -58.2503,-65.0803 L -58.1672,-65.0912 L -58.0837,-65.0978 L -58,-65.1
 L -57.9163,-65.0978 L -57.8327,-65.0912 L -57.7497,-65.0803 L -57.6673,-65.065 L -57.5859,-65.0455 L -57.5056,-65.0217
 L -57.4266,-64.9937 L -57.3492,-64.9617 L -57.2736,-64.9256 L -57.2,-64.8856 L -57.1286,-64.8419 L -57.0595,-64.7944
 L -56.9931,-64.7434 L -56.9294,-64.689 L -56.8686,-64.6314 L -56.811,-64.5706 L -56.7566,-64.5069 L -56.7056,-64.4404
 L -56.6581,-64.3714 L -56.6143,-64.3 L -56.5744,-64.2264 L -56.5383,-64.1508 L -56.5063,-64.0734 L -56.4783,-63.9944
 L -56.4545,-63.9141 L -56.435,-63.8327 L -56.4197,-63.7503 L -56.4088,-63.6672 L -56.4022,-63.5837 L -56.4,-63.5
 L -56.4022,-63.4163 L -56.4088,-63.3327 L -56.4197,-63.2497 L -56.435,-63.1673 L -56.4545,-63.0859 L -56.4783,-63.0056
 L -56.5063,-62.9266 L -56.5383,-62.8492 L -56.5744,-62.7736 L -56.6143,-62.7 L -56.6581,-62.6286 L -56.7056,-62.5595
 L -56.7566,-62.4931 L -56.811,-62.4294 L -56.8686,-62.3686 L -56.9294,-62.311 L -56.9931,-62.2566 L -57.0595,-62.2056
 L -57.1286,-62.1581 L -57.2,-62.1143 L -57.2736,-62.0744 L -57.3492,-62.0383 L -57.4266,-62.0063 L -57.5056,-61.9783
 L -57.5859,-61.9545 L -57.6673,-61.935 L -57.7497,-61.9197 L -57.8327,-61.9088 L -57.9163,-61.9022 L -58,-61.9
 z
M -8.922,-45.6053 L -9.04309,-45.6213 L -9.16232,-45.6477 L -9.27881,-45.6844 L -9.39165,-45.7312 L -9.49998,-45.7876
 L -9.60298,-45.8532 L -9.69989,-45.9275 L -9.78993,-46.01 L -9.87244,-46.1001 L -9.94679,-46.197 L -10.0124,-46.3
 L -10.0688,-46.4083 L -10.1156,-46.5212 L -10.1523,-46.6376 L -10.1787,-46.7569 L -10.1947,-46.878 L -10.2,-47
 L -10.1947,-47.122 L -10.1787,-47.2431 L -10.1523,-47.3623 L -10.1156,-47.4788 L -10.0688,-47.5917 L -10.0124,-47.7
 L -9.94679,-47.803 L -9.87244,-47.8999 L -9.78993,-47.9899 L -9.69989,-48.0724 L -9.60298,-48.1468 L -9.49998,-48.2124
 L -9.39165,-48.2688 L -9.27881,-48.3156 L -9.16232,-48.3523 L -9.04309,-48.3787 L -8.922,-48.3947 L -8.79999,-48.4
 L -8.67796,-48.3947 L -8.55687,-48.3787 L -8.43764,-48.3523 L -8.32115,-48.3156 L -8.20831,-48.2688 L -8.09998,-48.2124
 L -7.99698,-48.1468 L -7.90007,-48.0724 L -7.81003,-47.9899 L -7.72752,-47.8999 L -7.65317,-47.803 L -7.58754,-47.7
 L -7.53114,-47.5917 L -7.48441,-47.4788 L -7.44768,-47.3623 L -7.42125,-47.2431 L -7.4053,-47.122 L -7.39998,-47
 L -7.4053,-46.878 L -7.42125,-46.7569 L -7.44768,-46.6376 L -7.48441,-46.5212 L -7.53114,-46.4083 L -7.58754,-46.3
 L -7.65317,-46.197 L -7.72752,-46.1001 L -7.81003,-46.01 L -7.90007,-45.9275 L -7.99698,-45.8532 L -8.09998,-45.7876
 L -8.20831,-45.7312 L -8.32115,-45.6844 L -8.43764,-45.6477 L -8.55687,-45.6213 L -8.67796,-45.6053 L -8.79999,-45.6
 z
M 41.078,-45.6053 L 40.9569,-45.6213 L 40.8376,-45.6477 L 40.7212,-45.6844 L 40.6083,-45.7312 L 40.5,-45.7876
 L 40.397,-45.8532 L 40.3001,-45.9275 L 40.21,-46.01 L 40.1275,-46.1001 L 40.0532,-46.197 L 39.9875,-46.3
 L 39.9312,-46.4083 L 39.8844,-46.5212 L 39.8477,-46.6376 L 39.8213,-46.7569 L 39.8053,-46.878 L 39.8,-47
 L 39.8053,-47.122 L 39.8213,-47.2431 L 39.8477,-47.3623 L 39.8844,-47.4788 L 39.9312,-47.5917 L 39.9875,-47.7
 L 40.0532,-47.803 L 40.1275,-47.8999 L 40.21,-47.9899 L 40.3001,-48.0724 L 40.397,-48.1468 L 40.5,-48.2124
 L 40.6083,-48.2688 L 40.7212,-48.3156 L 40.8376,-48.3523 L 40.9569,-48.3787 L 41.078,-48.3947 L 41.2,-48.4
 L 41.322,-48.3947 L 41.4431,-48.3787 L 41.5623,-48.3523 L 41.6788,-48.3156 L 41.7917,-48.2688 L 41.9,-48.2124
 L 42.003,-48.1468 L 42.0999,-48.0724 L 42.1899,-47.9899 L 42.2724,-47.8999 L 42.3468,-47.803 L 42.4124,-47.7
 L 42.4688,-47.5917 L 42.5156,-47.4788 L 42.5523,-47.3623 L 42.5787,-47.2431 L 42.5947,-47.122 L 42.6,-47
 L 42.5947,-46.878 L 42.5787,-46.7569 L 42.5523,-46.6376 L 42.5156,-46.5212 L 42.4688,-46.4083 L 42.4124,-46.3
 L 42.3468,-46.197 L 42.2724,-46.1001 L 42.1899,-46.01 L 42.0999,-45.9275 L 42.003,-45.8532 L 41.9,-45.7876
 L 41.7917,-45.7312 L 41.6788,-45.6844 L 41.5623,-45.6477 L 41.4431,-45.6213 L 41.322,-45.6053 L 41.2,-45.6
 z
M -17.8,-16 L -17.8,-39 L 50.2,-39 L 50.2,-16 z
M -56.75,-28.75 L -56.75,-35.25 L -43.25,-35.25 L -43.25,-28.75 z
M -35.0837,-30.4022 L -35.1673,-30.4088 L -35.2503,-30.4197 L -35.3327,-30.435 L -35.4141,-30.4545 L -35.4944,-30.4783
 L -35.5734,-30.5063 L -35.6508,-30.5383 L -35.7264,-30.5744 L -35.8,-30.6144 L -35.8714,-30.6581 L -35.9405,-30.7056
 L -36.0069,-30.7566 L -36.0706,-30.811 L -36.1314,-30.8686 L -36.189,-30.9294 L -36.2434,-30.9931 L -36.2944,-31.0596
 L -36.3419,-31.1286 L -36.3857,-31.2 L -36.4256,-31.2736 L -36.4617,-31.3492 L -36.4937,-31.4266 L -36.5217,-31.5056
 L -36.5455,-31.5859 L -36.565,-31.6673 L -36.5803,-31.7497 L -36.5912,-31.8328 L -36.5978,-31.9163 L -36.6,-32
 L -36.5978,-32.0837 L -36.5912,-32.1672 L -36.5803,-32.2503 L -36.565,-32.3327 L -36.5455,-32.4141 L -36.5217,-32.4944
 L -36.4937,-32.5734 L -36.4617,-32.6508 L -36.4256,-32.7264 L -36.3857,-32.8 L -36.3419,-32.8714 L -36.2944,-32.9404
 L -36.2434,-33.0069 L -36.189,-33.0706 L -36.1314,-33.1314 L -36.0706,-33.189 L -36.0069,-33.2434 L -35.9405,-33.2944
 L -35.8714,-33.3419 L -35.8,-33.3856 L -35.7264,-33.4256 L -35.6508,-33.4617 L -35.5734,-33.4937 L -35.4944,-33.5217
 L -35.4141,-33.5455 L -35.3327,-33.565 L -35.2503,-33.5803 L -35.1673,-33.5912 L -35.0837,-33.5978 L -35,-33.6
 L -34.9163,-33.5978 L -34.8328,-33.5912 L -34.7497,-33.5803 L -34.6673,-33.565 L -34.5859,-33.5455 L -34.5056,-33.5217
 L -34.4266,-33.4937 L -34.3492,-33.4617 L -34.2736,-33.4256 L -34.2,-33.3856 L -34.1286,-33.3419 L -34.0596,-33.2944
 L -33.9931,-33.2434 L -33.9294,-33.189 L -33.8686,-33.1314 L -33.811,-33.0706 L -33.7566,-33.0069 L -33.7056,-32.9404
 L -33.6581,-32.8714 L -33.6144,-32.8 L -33.5744,-32.7264 L -33.5383,-32.6508 L -33.5063,-32.5734 L -33.4783,-32.4944
 L -33.4545,-32.4141 L -33.435,-32.3327 L -33.4197,-32.2503 L -33.4088,-32.1672 L -33.4022,-32.0837 L -33.4,-32
 L -33.4022,-31.9163 L -33.4088,-31.8328 L -33.4197,-31.7497 L -33.435,-31.6673 L -33.4545,-31.5859 L -33.4783,-31.5056
 L -33.5063,-31.4266 L -33.5383,-31.3492 L -33.5744,-31.2736 L -33.6144,-31.2 L -33.6581,-31.1286 L -33.7056,-31.0596
 L -33.7566,-30.9931 L -33.811,-30.9294 L -33.8686,-30.8686 L -33.9294,-30.811 L -33.9931,-30.7566 L -34.0596,-30.7056
 L -34.1286,-30.6581 L -34.2,-30.6144 L -34.2736,-30.5744 L -34.3492,-30.5383 L -34.4266,-30.5063 L -34.5056,-30.4783
 L -34.5859,-30.4545 L -34.6673,-30.435 L -34.7497,-30.4197 L -34.8328,-30.4088 L -34.9163,-30.4022 L -35,-30.4
 z
M -65.0837,-30.4022 L -65.1672,-30.4088 L -65.2503,-30.4197 L -65.3327,-30.435 L -65.4141,-30.4545 L -65.4944,-30.4783
 L -65.5734,-30.5063 L -65.6508,-30.5383 L -65.7264,-30.5744 L -65.8,-30.6144 L -65.8714,-30.6581 L -65.9404,-30.7056
 L -66.0069,-30.7566 L -66.0706,-30.811 L -66.1314,-30.8686 L -66.189,-30.9294 L -66.2434,-30.9931 L -66.2944,-31.0596
 L -66.3419,-31.1286 L -66.3856,-31.2 L -66.4256,-31.2736 L -66.4617,-31.3492 L -66.4937,-31.4266 L -66.5217,-31.5056
 L -66.5455,-31.5859 L -66.565,-31.6673 L -66.5803,-31.7497 L -66.5912,-31.8328 L -66.5978,-31.9163 L -66.6,-32
 L -66.5978,-32.0837 L -66.5912,-32.1672 L -66.5803,-32.2503 L -66.565,-32.3327 L -66.5455,-32.4141 L -66.5217,-32.4944
 L -66.4937,-32.5734 L -66.4617,-32.6508 L -66.4256,-32.7264 L -66.3856,-32.8 L -66.3419,-32.8714 L -66.2944,-32.9404
 L -66.2434,-33.0069 L -66.189,-33.0706 L -66.1314,-33.1314 L -66.0706,-33.189 L -66.0069,-33.2434 L -65.9404,-33.2944
 L -65.8714,-33.3419 L -65.8,-33.3856 L -65.7264,-33.4256 L -65.6508,-33.4617 L -65.5734,-33.4937 L -65.4944,-33.5217
 L -65.4141,-33.5455 L -65.3327,-33.565 L -65.2503,-33.5803 L -65.1672,-33.5912 L -65.0837,-33.5978 L -65,-33.6
 L -64.9163,-33.5978 L -64.8327,-33.5912 L -64.7497,-33.5803 L -64.6673,-33.565 L -64.5859,-33.5455 L -64.5056,-33.5217
 L -64.4266,-33.4937 L -64.3492,-33.4617 L -64.2736,-33.4256 L -64.2,-33.3856 L -64.1286,-33.3419 L -64.0595,-33.2944
 L -63.9931,-33.2434 L -63.9294,-33.189 L -63.8686,-33.1314 L -63.811,-33.0706 L -63.7566,-33.0069 L -63.7056,-32.9404
 L -63.6581,-32.8714 L -63.6143,-32.8 L -63.5744,-32.7264 L -63.5383,-32.6508 L -63.5063,-32.5734 L -63.4783,-32.4944
 L -63.4545,-32.4141 L -63.435,-32.3327 L -63.4197,-32.2503 L -63.4088,-32.1672 L -63.4022,-32.0837 L -63.4,-32
 L -63.4022,-31.9163 L -63.4088,-31.8328 L -63.4197,-31.7497 L -63.435,-31.6673 L -63.4545,-31.5859 L -63.4783,-31.5056
 L -63.5063,-31.4266 L -63.5383,-31.3492 L -63.5744,-31.2736 L -63.6143,-31.2 L -63.6581,-31.1286 L -63.7056,-31.0596
 L -63.7566,-30.9931 L -63.811,-30.9294 L -63.8686,-30.8686 L -63.9294,-30.811 L -63.9931,-30.7566 L -64.0595,-30.7056
 L -64.1286,-30.6581 L -64.2,-30.6144 L -64.2736,-30.5744 L -64.3492,-30.5383 L -64.4266,-30.5063 L -64.5056,-30.4783
 L -64.5859,-30.4545 L -64.6673,-30.435 L -64.7497,-30.4197 L -64.8327,-30.4088 L -64.9163,-30.4022 L -65,-30.4
 z
M 41.078,-6.60533 L 40.9569,-6.62128 L 40.8376,-6.64771 L 40.7212,-6.68443 L 40.6083,-6.73117 L 40.5,-6.78757
 L 40.397,-6.8532 L 40.3001,-6.92755 L 40.21,-7.01006 L 40.1275,-7.1001 L 40.0532,-7.19701 L 39.9875,-7.3
 L 39.9312,-7.40834 L 39.8844,-7.52118 L 39.8477,-7.63766 L 39.8213,-7.7569 L 39.8053,-7.87799 L 39.8,-8
 L 39.8053,-8.12202 L 39.8213,-8.24312 L 39.8477,-8.36235 L 39.8844,-8.47884 L 39.9312,-8.59167 L 39.9875,-8.70001
 L 40.0532,-8.80301 L 40.1275,-8.89992 L 40.21,-8.98996 L 40.3001,-9.07246 L 40.397,-9.14682 L 40.5,-9.21245
 L 40.6083,-9.26884 L 40.7212,-9.31558 L 40.8376,-9.35231 L 40.9569,-9.37874 L 41.078,-9.39468 L 41.2,-9.40001
 L 41.322,-9.39468 L 41.4431,-9.37874 L 41.5623,-9.35231 L 41.6788,-9.31558 L 41.7917,-9.26884 L 41.9,-9.21245
 L 42.003,-9.14682 L 42.0999,-9.07246 L 42.1899,-8.98996 L 42.2724,-8.89992 L 42.3468,-8.80301 L 42.4124,-8.70001
 L 42.4688,-8.59167 L 42.5156,-8.47884 L 42.5523,-8.36235 L 42.5787,-8.24312 L 42.5947,-8.12202 L 42.6,-8
 L 42.5947,-7.87799 L 42.5787,-7.7569 L 42.5523,-7.63766 L 42.5156,-7.52118 L 42.4688,-7.40834 L 42.4124,-7.3
 L 42.3468,-7.19701 L 42.2724,-7.1001 L 42.1899,-7.01006 L 42.0999,-6.92755 L 42.003,-6.8532 L 41.9,-6.78757
 L 41.7917,-6.73117 L 41.6788,-6.68443 L 41.5623,-6.64771 L 41.4431,-6.62128 L 41.322,-6.60533 L 41.2,-6.60001
 z
M -8.922,-6.60533 L -9.04309,-6.62128 L -9.16232,-6.64771 L -9.27881,-6.68443 L -9.39165,-6.73117 L -9.49998,-6.78757
 L -9.60298,-6.8532 L -9.69989,-6.92755 L -9.78993,-7.01006 L -9.87244,-7.1001 L -9.94679,-7.19701 L -10.0124,-7.3
 L -10.0688,-7.40834 L -10.1156,-7.52118 L -10.1523,-7.63766 L -10.1787,-7.7569 L -10.1947,-7.87799 L -10.2,-8
 L -10.1947,-8.12202 L -10.1787,-8.24312 L -10.1523,-8.36235 L -10.1156,-8.47884 L -10.0688,-8.59167 L -10.0124,-8.70001
 L -9.94679,-8.80301 L -9.87244,-8.89992 L -9.78993,-8.98996 L -9.69989,-9.07246 L -9.60298,-9.14682 L -9.49998,-9.21245
 L -9.39165,-9.26884 L -9.27881,-9.31558 L -9.16232,-9.35231 L -9.04309,-9.37874 L -8.922,-9.39468 L -8.79999,-9.40001
 L -8.67796,-9.39468 L -8.55687,-9.37874 L -8.43764,-9.35231 L -8.32115,-9.31558 L -8.20831,-9.26884 L -8.09998,-9.21245
 L -7.99698,-9.14682 L -7.90007,-9.07246 L -7.81003,-8.98996 L -7.72752,-8.89992 L -7.65317,-8.80301 L -7.58754,-8.70001
 L -7.53114,-8.59167 L -7.48441,-8.47884 L -7.44768,-8.36235 L -7.42125,-8.24312 L -7.4053,-8.12202 L -7.39998,-8
 L -7.4053,-7.87799 L -7.42125,-7.7569 L -7.44768,-7.63766 L -7.48441,-7.52118 L -7.53114,-7.40834 L -7.58754,-7.3
 L -7.65317,-7.19701 L -7.72752,-7.1001 L -7.81003,-7.01006 L -7.90007,-6.92755 L -7.99698,-6.8532 L -8.09998,-6.78757
 L -8.20831,-6.73117 L -8.32115,-6.68443 L -8.43764,-6.64771 L -8.55687,-6.62128 L -8.67796,-6.60533 L -8.79999,-6.60001
 z
M -45.66,53 L -45.817,52.9959 L -45.9736,52.9836 L -46.1293,52.9631 L -46.2837,52.9344 L -46.4364,52.8978
 L -46.587,52.8532 L -46.7351,52.8007 L -46.8802,52.7406 L -47.022,52.673 L -47.16,52.5981 L -47.2939,52.516
 L -47.4233,52.427 L -47.5479,52.3314 L -47.6674,52.2294 L -47.7813,52.1213 L -47.8894,52.0074 L -47.9914,51.888
 L -48.087,51.7634 L -48.176,51.6339 L -48.2581,51.5 L -48.333,51.362 L -48.4006,51.2202 L -48.4607,51.0751
 L -48.5132,50.927 L -48.5578,50.7765 L -48.5944,50.6237 L -48.623,50.4693 L -48.6436,50.3136 L -48.6559,50.157
 L -48.66,50 L -48.66,-2 L -48.6559,-2.15701 L -48.6436,-2.31358 L -48.623,-2.4693 L -48.5944,-2.62373
 L -48.5578,-2.77646 L -48.5132,-2.92705 L -48.4607,-3.0751 L -48.4006,-3.22021 L -48.333,-3.36197 L -48.2581,-3.5
 L -48.176,-3.63391 L -48.087,-3.76335 L -47.9914,-3.88795 L -47.8894,-4.00739 L -47.7813,-4.12132 L -47.6674,-4.22943
 L -47.5479,-4.33144 L -47.4233,-4.42705 L -47.2939,-4.51601 L -47.16,-4.59808 L -47.022,-4.67302 L -46.8802,-4.74063
 L -46.7351,-4.80074 L -46.587,-4.85316 L -46.4364,-4.89778 L -46.2837,-4.93445 L -46.1293,-4.96306 L -45.9736,-4.98357
 L -45.817,-4.9959 L -45.66,-5 L -23.66,-5 L -23.503,-4.9959 L -23.3464,-4.98357 L -23.1907,-4.96306
 L -23.0363,-4.93445 L -22.8835,-4.89778 L -22.7329,-4.85316 L -22.5849,-4.80074 L -22.4398,-4.74063 L -22.298,-4.67302
 L -22.16,-4.59808 L -22.0261,-4.51601 L -21.8966,-4.42705 L -21.772,-4.33144 L -21.6526,-4.22943 L -21.5387,-4.12132
 L -21.4306,-4.00739 L -21.3286,-3.88795 L -21.2329,-3.76335 L -21.144,-3.63391 L -21.0619,-3.5 L -20.987,-3.36197
 L -20.9194,-3.22021 L -20.8593,-3.0751 L -20.8068,-2.92705 L -20.7622,-2.77646 L -20.7255,-2.62373 L -20.6969,-2.4693
 L -20.6764,-2.31358 L -20.6641,-2.15701 L -20.66,-2 L -20.66,50 L -20.6641,50.157 L -20.6764,50.3136
 L -20.6969,50.4693 L -20.7255,50.6237 L -20.7622,50.7765 L -20.8068,50.927 L -20.8593,51.0751 L -20.9194,51.2202
 L -20.987,51.362 L -21.0619,51.5 L -21.144,51.6339 L -21.2329,51.7634 L -21.3286,51.888 L -21.4306,52.0074
 L -21.5387,52.1213 L -21.6526,52.2294 L -21.772,52.3314 L -21.8966,52.427 L -22.0261,52.516 L -22.16,52.5981
 L -22.298,52.673 L -22.4398,52.7406 L -22.5849,52.8007 L -22.7329,52.8532 L -22.8835,52.8978 L -23.0363,52.9344
 L -23.1907,52.9631 L -23.3464,52.9836 L -23.503,52.9959 L -23.66,53 z
M 47.9163,1.59779 L 47.8327,1.59123 L 47.7497,1.58029 L 47.6673,1.56503 L 47.5859,1.54547 L 47.5056,1.52168
 L 47.4266,1.49373 L 47.3492,1.46167 L 47.2736,1.4256 L 47.2,1.38564 L 47.1286,1.34186 L 47.0595,1.29442
 L 46.9931,1.24342 L 46.9294,1.18903 L 46.8686,1.13136 L 46.811,1.0706 L 46.7566,1.00691 L 46.7056,0.940445
 L 46.6581,0.871414 L 46.6143,0.799988 L 46.5744,0.726379 L 46.5383,0.650772 L 46.5063,0.57338 L 46.4783,0.494415
 L 46.4545,0.414108 L 46.435,0.332657 L 46.4197,0.25029 L 46.4088,0.167236 L 46.4022,0.083725 L 46.4,-0
 L 46.4022,-0.083725 L 46.4088,-0.167236 L 46.4197,-0.25029 L 46.435,-0.332657 L 46.4545,-0.414108 L 46.4783,-0.494415
 L 46.5063,-0.57338 L 46.5383,-0.650772 L 46.5744,-0.726379 L 46.6143,-0.799988 L 46.6581,-0.871414 L 46.7056,-0.940445
 L 46.7566,-1.00691 L 46.811,-1.0706 L 46.8686,-1.13136 L 46.9294,-1.18903 L 46.9931,-1.24342 L 47.0595,-1.29442
 L 47.1286,-1.34186 L 47.2,-1.38564 L 47.2736,-1.4256 L 47.3492,-1.46167 L 47.4266,-1.49373 L 47.5056,-1.52168
 L 47.5859,-1.54547 L 47.6673,-1.56503 L 47.7497,-1.58029 L 47.8327,-1.59123 L 47.9163,-1.59779 L 48,-1.59999
 L 48.0837,-1.59779 L 48.1672,-1.59123 L 48.2503,-1.58029 L 48.3327,-1.56503 L 48.4141,-1.54547 L 48.4944,-1.52168
 L 48.5734,-1.49373 L 48.6508,-1.46167 L 48.7264,-1.4256 L 48.8,-1.38564 L 48.8714,-1.34186 L 48.9404,-1.29442
 L 49.0069,-1.24342 L 49.0706,-1.18903 L 49.1314,-1.13136 L 49.189,-1.0706 L 49.2434,-1.00691 L 49.2944,-0.940445
 L 49.3419,-0.871414 L 49.3856,-0.799988 L 49.4256,-0.726379 L 49.4617,-0.650772 L 49.4937,-0.57338 L 49.5217,-0.494415
 L 49.5455,-0.414108 L 49.565,-0.332657 L 49.5803,-0.25029 L 49.5912,-0.167236 L 49.5978,-0.083725 L 49.6,-0
 L 49.5978,0.083725 L 49.5912,0.167236 L 49.5803,0.25029 L 49.565,0.332657 L 49.5455,0.414108 L 49.5217,0.494415
 L 49.4937,0.57338 L 49.4617,0.650772 L 49.4256,0.726379 L 49.3856,0.799988 L 49.3419,0.871414 L 49.2944,0.940445
 L 49.2434,1.00691 L 49.189,1.0706 L 49.1314,1.13136 L 49.0706,1.18903 L 49.0069,1.24342 L 48.9404,1.29442
 L 48.8714,1.34186 L 48.8,1.38564 L 48.7264,1.4256 L 48.6508,1.46167 L 48.5734,1.49373 L 48.4944,1.52168
 L 48.4141,1.54547 L 48.3327,1.56503 L 48.2503,1.58029 L 48.1672,1.59123 L 48.0837,1.59779 L 48,1.59999
 z
M -53.7332,3.39809 L -53.8063,3.39233 L -53.879,3.38277 L -53.951,3.36942 L -54.0223,3.35231 L -54.0926,3.33148
 L -54.1617,3.30702 L -54.2294,3.27898 L -54.2956,3.24742 L -54.36,3.21245 L -54.4225,3.17415 L -54.4829,3.13263
 L -54.541,3.08801 L -54.5968,3.04041 L -54.6499,2.98996 L -54.7004,2.9368 L -54.748,2.88106 L -54.7926,2.82291
 L -54.8341,2.7625 L -54.8724,2.70001 L -54.9074,2.63559 L -54.9389,2.56944 L -54.967,2.50172 L -54.9915,2.43263
 L -55.0123,2.36235 L -55.0294,2.29108 L -55.0427,2.21901 L -55.0523,2.14635 L -55.0581,2.07327 L -55.06,2
 L -55.0581,1.92674 L -55.0523,1.85367 L -55.0427,1.78101 L -55.0294,1.70894 L -55.0123,1.63766 L -54.9915,1.56738
 L -54.967,1.49829 L -54.9389,1.43057 L -54.9074,1.36443 L -54.8724,1.3 L -54.8341,1.23752 L -54.7926,1.17711
 L -54.748,1.11896 L -54.7004,1.06322 L -54.6499,1.01006 L -54.5968,0.95961 L -54.541,0.912003 L -54.4829,0.867386
 L -54.4225,0.825867 L -54.36,0.787567 L -54.2956,0.752594 L -54.2294,0.721039 L -54.1617,0.692993 L -54.0926,0.668533
 L -54.0223,0.647705 L -53.951,0.6306 L -53.879,0.617249 L -53.8063,0.607681 L -53.7332,0.601929 L -53.66,0.600006
 L -53.5867,0.601929 L -53.5136,0.607681 L -53.441,0.617249 L -53.3689,0.6306 L -53.2976,0.647705 L -53.2274,0.668533
 L -53.1583,0.692993 L -53.0905,0.721039 L -53.0244,0.752594 L -52.96,0.787567 L -52.8975,0.825867 L -52.8371,0.867386
 L -52.7789,0.912003 L -52.7232,0.95961 L -52.67,1.01006 L -52.6196,1.06322 L -52.572,1.11896 L -52.5274,1.17711
 L -52.4858,1.23752 L -52.4475,1.3 L -52.4126,1.36443 L -52.381,1.43057 L -52.353,1.49829 L -52.3285,1.56738
 L -52.3077,1.63766 L -52.2906,1.70894 L -52.2772,1.78101 L -52.2677,1.85367 L -52.2619,1.92674 L -52.26,2
 L -52.2619,2.07327 L -52.2677,2.14635 L -52.2772,2.21901 L -52.2906,2.29108 L -52.3077,2.36235 L -52.3285,2.43263
 L -52.353,2.50172 L -52.381,2.56944 L -52.4126,2.63559 L -52.4475,2.70001 L -52.4858,2.7625 L -52.5274,2.82291
 L -52.572,2.88106 L -52.6196,2.9368 L -52.67,2.98996 L -52.7232,3.04041 L -52.7789,3.08801 L -52.8371,3.13263
 L -52.8975,3.17415 L -52.96,3.21245 L -53.0244,3.24742 L -53.0905,3.27898 L -53.1583,3.30702 L -53.2274,3.33148
 L -53.2976,3.35231 L -53.3689,3.36942 L -53.441,3.38277 L -53.5136,3.39233 L -53.5867,3.39809 L -53.66,3.40001
 z
M -15.7333,3.39809 L -15.8063,3.39233 L -15.879,3.38277 L -15.9511,3.36942 L -16.0223,3.35231 L -16.0926,3.33148
 L -16.1617,3.30702 L -16.2294,3.27898 L -16.2956,3.24742 L -16.36,3.21245 L -16.4225,3.17415 L -16.4829,3.13263
 L -16.541,3.08801 L -16.5968,3.04041 L -16.6499,2.98996 L -16.7004,2.9368 L -16.748,2.88106 L -16.7926,2.82291
 L -16.8341,2.7625 L -16.8724,2.70001 L -16.9074,2.63559 L -16.939,2.56944 L -16.967,2.50172 L -16.9915,2.43263
 L -17.0123,2.36235 L -17.0294,2.29108 L -17.0428,2.21901 L -17.0523,2.14635 L -17.0581,2.07327 L -17.06,2
 L -17.0581,1.92674 L -17.0523,1.85367 L -17.0428,1.78101 L -17.0294,1.70894 L -17.0123,1.63766 L -16.9915,1.56738
 L -16.967,1.49829 L -16.939,1.43057 L -16.9074,1.36443 L -16.8724,1.3 L -16.8341,1.23752 L -16.7926,1.17711
 L -16.748,1.11896 L -16.7004,1.06322 L -16.6499,1.01006 L -16.5968,0.95961 L -16.541,0.912003 L -16.4829,0.867386
 L -16.4225,0.825867 L -16.36,0.787567 L -16.2956,0.752594 L -16.2294,0.721039 L -16.1617,0.692993 L -16.0926,0.668533
 L -16.0223,0.647705 L -15.9511,0.6306 L -15.879,0.617249 L -15.8063,0.607681 L -15.7333,0.601929 L -15.66,0.600006
 L -15.5867,0.601929 L -15.5137,0.607681 L -15.441,0.617249 L -15.3689,0.6306 L -15.2977,0.647705 L -15.2274,0.668533
 L -15.1583,0.692993 L -15.0906,0.721039 L -15.0244,0.752594 L -14.96,0.787567 L -14.8975,0.825867 L -14.8371,0.867386
 L -14.7789,0.912003 L -14.7232,0.95961 L -14.67,1.01006 L -14.6196,1.06322 L -14.572,1.11896 L -14.5274,1.17711
 L -14.4859,1.23752 L -14.4476,1.3 L -14.4126,1.36443 L -14.381,1.43057 L -14.353,1.49829 L -14.3285,1.56738
 L -14.3077,1.63766 L -14.2906,1.70894 L -14.2772,1.78101 L -14.2677,1.85367 L -14.2619,1.92674 L -14.26,2
 L -14.2619,2.07327 L -14.2677,2.14635 L -14.2772,2.21901 L -14.2906,2.29108 L -14.3077,2.36235 L -14.3285,2.43263
 L -14.353,2.50172 L -14.381,2.56944 L -14.4126,2.63559 L -14.4476,2.70001 L -14.4859,2.7625 L -14.5274,2.82291
 L -14.572,2.88106 L -14.6196,2.9368 L -14.67,2.98996 L -14.7232,3.04041 L -14.7789,3.08801 L -14.8371,3.13263
 L -14.8975,3.17415 L -14.96,3.21245 L -15.0244,3.24742 L -15.0906,3.27898 L -15.1583,3.30702 L -15.2274,3.33148
 L -15.2977,3.35231 L -15.3689,3.36942 L -15.441,3.38277 L -15.5137,3.39233 L -15.5867,3.39809 L -15.66,3.40001
 z
M 33.9793,4.73782 L 33.9062,4.73207 L 33.8335,4.72252 L 33.7615,4.70915 L 33.6902,4.69205 L 33.6199,4.67123
 L 33.5508,4.64676 L 33.4831,4.61871 L 33.417,4.58716 L 33.3525,4.55219 L 33.2901,4.51389 L 33.2296,4.47238
 L 33.1715,4.42775 L 33.1158,4.38016 L 33.0626,4.3297 L 33.0121,4.27652 L 32.9645,4.22079 L 32.9199,4.16264
 L 32.8784,4.10223 L 32.8401,4.03975 L 32.8051,3.97534 L 32.7736,3.90918 L 32.7455,3.84146 L 32.7211,3.77238
 L 32.7002,3.7021 L 32.6832,3.63083 L 32.6698,3.55876 L 32.6602,3.48608 L 32.6545,3.41302 L 32.6525,3.33975
 L 32.6545,3.26648 L 32.6602,3.19341 L 32.6698,3.12074 L 32.6831,3.04866 L 32.7003,2.9774 L 32.7211,2.90714
 L 32.7455,2.83803 L 32.7736,2.77032 L 32.8051,2.70416 L 32.8401,2.63974 L 32.8784,2.57726 L 32.9199,2.51685
 L 32.9645,2.45869 L 33.0121,2.40297 L 33.0626,2.34979 L 33.1158,2.29935 L 33.1715,2.25174 L 33.2296,2.20712
 L 33.2901,2.1656 L 33.3526,2.1273 L 33.417,2.09235 L 33.4831,2.06079 L 33.5508,2.03275 L 33.6199,2.00827
 L 33.6902,1.98744 L 33.7615,1.97035 L 33.8335,1.95699 L 33.9062,1.94742 L 33.9793,1.94167 L 34.0526,1.93974
 L 34.1258,1.94167 L 34.1989,1.94742 L 34.2716,1.95699 L 34.3436,1.97034 L 34.4149,1.98744 L 34.4852,2.00827
 L 34.5543,2.03273 L 34.622,2.06079 L 34.6881,2.09235 L 34.7525,2.1273 L 34.815,2.16562 L 34.8755,2.20712
 L 34.9336,2.25174 L 34.9893,2.29935 L 35.0425,2.34979 L 35.093,2.40297 L 35.1405,2.45871 L 35.1852,2.51685
 L 35.2267,2.57726 L 35.265,2.63974 L 35.3,2.70416 L 35.3315,2.77032 L 35.3596,2.83803 L 35.384,2.90712
 L 35.4048,2.9774 L 35.422,3.04868 L 35.4353,3.12074 L 35.4449,3.19341 L 35.4506,3.26648 L 35.4526,3.33975
 L 35.4506,3.41301 L 35.4449,3.48608 L 35.4353,3.55876 L 35.422,3.63083 L 35.4048,3.7021 L 35.384,3.77237
 L 35.3596,3.84146 L 35.3315,3.90918 L 35.3,3.97534 L 35.265,4.03975 L 35.2267,4.10225 L 35.1852,4.16264
 L 35.1405,4.22079 L 35.093,4.27652 L 35.0425,4.32971 L 34.9893,4.38016 L 34.9336,4.42775 L 34.8754,4.47237
 L 34.815,4.51389 L 34.7525,4.55219 L 34.6881,4.58716 L 34.622,4.61871 L 34.5543,4.64676 L 34.4852,4.67122
 L 34.4149,4.69205 L 34.3436,4.70915 L 34.2716,4.72252 L 34.1989,4.73209 L 34.1258,4.73784 L 34.0526,4.73976
 z
M 7.33974,21.0718 L 24.6602,11.0718 L 34.6602,28.3923 L 17.3397,38.3923 z
M 43.9793,22.0583 L 43.9062,22.0526 L 43.8335,22.043 L 43.7615,22.0296 L 43.6902,22.0125 L 43.6199,21.9917
 L 43.5508,21.9673 L 43.4831,21.9392 L 43.4169,21.9077 L 43.3525,21.8727 L 43.29,21.8344 L 43.2296,21.7929
 L 43.1715,21.7482 L 43.1158,21.7006 L 43.0626,21.6502 L 43.0121,21.597 L 42.9645,21.5413 L 42.9199,21.4831
 L 42.8784,21.4227 L 42.8401,21.3602 L 42.8051,21.2958 L 42.7736,21.2297 L 42.7455,21.162 L 42.7211,21.0929
 L 42.7002,21.0226 L 42.6831,20.9513 L 42.6698,20.8793 L 42.6602,20.8066 L 42.6545,20.7335 L 42.6525,20.6602
 L 42.6545,20.587 L 42.6602,20.5139 L 42.6698,20.4412 L 42.6831,20.3692 L 42.7002,20.2979 L 42.7211,20.2276
 L 42.7455,20.1585 L 42.7736,20.0908 L 42.8051,20.0247 L 42.8401,19.9602 L 42.8784,19.8977 L 42.9199,19.8373
 L 42.9645,19.7792 L 43.0121,19.7235 L 43.0626,19.6703 L 43.1158,19.6198 L 43.1715,19.5722 L 43.2296,19.5276
 L 43.2901,19.4861 L 43.3525,19.4478 L 43.4169,19.4128 L 43.4831,19.3813 L 43.5508,19.3532 L 43.6199,19.3288
 L 43.6902,19.3079 L 43.7615,19.2908 L 43.8335,19.2775 L 43.9062,19.2679 L 43.9793,19.2622 L 44.0525,19.2602
 L 44.1258,19.2622 L 44.1989,19.2679 L 44.2715,19.2775 L 44.3436,19.2908 L 44.4149,19.3079 L 44.4852,19.3288
 L 44.5543,19.3532 L 44.622,19.3813 L 44.6881,19.4128 L 44.7525,19.4478 L 44.815,19.4861 L 44.8754,19.5276
 L 44.9336,19.5722 L 44.9893,19.6198 L 45.0425,19.6703 L 45.0929,19.7235 L 45.1405,19.7792 L 45.1852,19.8373
 L 45.2267,19.8978 L 45.265,19.9603 L 45.2999,20.0247 L 45.3315,20.0908 L 45.3595,20.1585 L 45.384,20.2276
 L 45.4048,20.2979 L 45.422,20.3692 L 45.4353,20.4412 L 45.4449,20.5139 L 45.4506,20.587 L 45.4525,20.6602
 L 45.4506,20.7335 L 45.4449,20.8066 L 45.4353,20.8793 L 45.422,20.9513 L 45.4048,21.0226 L 45.384,21.0929
 L 45.3596,21.162 L 45.3315,21.2297 L 45.2999,21.2958 L 45.265,21.3602 L 45.2267,21.4227 L 45.1852,21.4831
 L 45.1405,21.5413 L 45.0929,21.597 L 45.0425,21.6502 L 44.9893,21.7007 L 44.9336,21.7482 L 44.8754,21.7929
 L 44.815,21.8344 L 44.7525,21.8727 L 44.6881,21.9077 L 44.622,21.9392 L 44.5543,21.9673 L 44.4852,21.9917
 L 44.4149,22.0125 L 44.3436,22.0296 L 44.2715,22.043 L 44.1989,22.0526 L 44.1258,22.0583 L 44.0525,22.0603
 z
M -4.12581,26.7378 L -4.19888,26.7321 L -4.27155,26.7225 L -4.34363,26.7092 L -4.41489,26.692 L -4.48515,26.6712
 L -4.55426,26.6468 L -4.62196,26.6187 L -4.68813,26.5871 L -4.75255,26.5522 L -4.81505,26.5139 L -4.87544,26.4724
 L -4.93359,26.4277 L -4.98932,26.3801 L -5.0425,26.3297 L -5.09294,26.2765 L -5.14055,26.2208 L -5.18517,26.1626
 L -5.22668,26.1022 L -5.26498,26.0397 L -5.29994,25.9753 L -5.3315,25.9092 L -5.35954,25.8415 L -5.38402,25.7724
 L -5.40485,25.7021 L -5.42195,25.6308 L -5.4353,25.5587 L -5.44489,25.4861 L -5.45062,25.413 L -5.45255,25.3397
 L -5.45062,25.2665 L -5.44487,25.1934 L -5.4353,25.1207 L -5.42195,25.0487 L -5.40485,24.9774 L -5.38402,24.9071
 L -5.35956,24.838 L -5.3315,24.7703 L -5.29994,24.7041 L -5.26498,24.6397 L -5.22668,24.5772 L -5.18517,24.5168
 L -5.14055,24.4587 L -5.09294,24.403 L -5.0425,24.3498 L -4.98932,24.2993 L -4.93358,24.2517 L -4.87544,24.2071
 L -4.81503,24.1656 L -4.75255,24.1273 L -4.68813,24.0923 L -4.62196,24.0608 L -4.55426,24.0327 L -4.48517,24.0083
 L -4.41489,23.9874 L -4.34361,23.9703 L -4.27155,23.957 L -4.19888,23.9474 L -4.12582,23.9417 L -4.05254,23.9397
 L -3.97928,23.9417 L -3.9062,23.9474 L -3.83353,23.957 L -3.76146,23.9703 L -3.6902,23.9874 L -3.61992,24.0083
 L -3.55083,24.0327 L -3.48311,24.0608 L -3.41695,24.0923 L -3.35254,24.1273 L -3.29004,24.1656 L -3.22964,24.2071
 L -3.17149,24.2517 L -3.11577,24.2993 L -3.06258,24.3498 L -3.01213,24.403 L -2.96454,24.4587 L -2.91992,24.5168
 L -2.8784,24.5773 L -2.8401,24.6397 L -2.80513,24.7041 L -2.77357,24.7703 L -2.74553,24.838 L -2.72107,24.9071
 L -2.70024,24.9774 L -2.68314,25.0487 L -2.66977,25.1207 L -2.6602,25.1934 L -2.65446,25.2665 L -2.65253,25.3397
 L -2.65446,25.413 L -2.66022,25.4861 L -2.66977,25.5587 L -2.68314,25.6308 L -2.70024,25.7021 L -2.72105,25.7724
 L -2.74553,25.8415 L -2.77357,25.9092 L -2.80513,25.9753 L -2.8401,26.0397 L -2.8784,26.1022 L -2.91991,26.1626
 L -2.96454,26.2208 L -3.01215,26.2765 L -3.06259,26.3297 L -3.11577,26.3801 L -3.17149,26.4277 L -3.22964,26.4724
 L -3.29005,26.5139 L -3.35254,26.5522 L -3.41695,26.5871 L -3.48311,26.6187 L -3.55083,26.6467 L -3.6199,26.6712
 L -3.69019,26.692 L -3.76147,26.7091 L -3.83353,26.7225 L -3.9062,26.7321 L -3.97926,26.7378 L -4.05254,26.7397
 z
M 5.87418,44.0583 L 5.8011,44.0526 L 5.72842,44.043 L 5.65636,44.0296 L 5.58508,44.0125 L 5.51482,43.9917
 L 5.44572,43.9673 L 5.37801,43.9392 L 5.31184,43.9076 L 5.24744,43.8727 L 5.18494,43.8344 L 5.12453,43.7929
 L 5.06639,43.7482 L 5.01065,43.7006 L 4.95747,43.6502 L 4.90703,43.597 L 4.85944,43.5413 L 4.81482,43.4831
 L 4.7733,43.4227 L 4.735,43.3602 L 4.70003,43.2958 L 4.66847,43.2297 L 4.64043,43.162 L 4.61597,43.0929
 L 4.59514,43.0226 L 4.57803,42.9513 L 4.56467,42.8792 L 4.5551,42.8066 L 4.54935,42.7335 L 4.54742,42.6602
 L 4.54936,42.587 L 4.55511,42.5139 L 4.56467,42.4412 L 4.57803,42.3692 L 4.59514,42.2979 L 4.61595,42.2276
 L 4.64043,42.1585 L 4.66847,42.0908 L 4.70003,42.0246 L 4.735,41.9602 L 4.7733,41.8977 L 4.8148,41.8373
 L 4.85944,41.7792 L 4.90703,41.7235 L 4.95749,41.6703 L 5.01067,41.6198 L 5.06639,41.5722 L 5.12454,41.5276
 L 5.18495,41.4861 L 5.24744,41.4478 L 5.31184,41.4128 L 5.37801,41.3813 L 5.44572,41.3532 L 5.5148,41.3288
 L 5.58508,41.3079 L 5.65636,41.2908 L 5.72842,41.2775 L 5.8011,41.2679 L 5.87416,41.2621 L 5.94743,41.2602
 L 6.02071,41.2622 L 6.09378,41.2679 L 6.16644,41.2775 L 6.23853,41.2908 L 6.30978,41.3079 L 6.38005,41.3288
 L 6.44916,41.3532 L 6.51686,41.3813 L 6.58302,41.4128 L 6.64745,41.4478 L 6.70993,41.4861 L 6.77034,41.5276
 L 6.82849,41.5722 L 6.88422,41.6198 L 6.93739,41.6703 L 6.98784,41.7235 L 7.03545,41.7792 L 7.08006,41.8373
 L 7.12158,41.8978 L 7.15988,41.9602 L 7.19484,42.0246 L 7.22639,42.0908 L 7.25444,42.1585 L 7.27892,42.2276
 L 7.29974,42.2979 L 7.31683,42.3692 L 7.3302,42.4412 L 7.33977,42.5139 L 7.34552,42.587 L 7.34744,42.6602
 L 7.34552,42.7335 L 7.33977,42.8066 L 7.3302,42.8792 L 7.31685,42.9513 L 7.29973,43.0226 L 7.27892,43.0928
 L 7.25446,43.162 L 7.22639,43.2297 L 7.19484,43.2958 L 7.15988,43.3602 L 7.12157,43.4227 L 7.08006,43.4831
 L 7.03545,43.5413 L 6.98784,43.597 L 6.93739,43.6502 L 6.88422,43.7006 L 6.82848,43.7482 L 6.77034,43.7929
 L 6.70993,43.8344 L 6.64743,43.8727 L 6.58302,43.9076 L 6.51686,43.9392 L 6.44916,43.9672 L 6.38007,43.9917
 L 6.30978,44.0125 L 6.23851,44.0296 L 6.16644,44.043 L 6.09378,44.0526 L 6.02071,44.0583 L 5.94743,44.0602
 z
M -15.7333,47.3981 L -15.8063,47.3923 L -15.879,47.3828 L -15.9511,47.3694 L -16.0223,47.3523 L -16.0926,47.3315
 L -16.1617,47.307 L -16.2294,47.279 L -16.2956,47.2474 L -16.36,47.2124 L -16.4225,47.1741 L -16.4829,47.1326
 L -16.541,47.088 L -16.5968,47.0404 L -16.6499,46.9899 L -16.7004,46.9368 L -16.748,46.881 L -16.7926,46.8229
 L -16.8341,46.7625 L -16.8724,46.7 L -16.9074,46.6356 L -16.939,46.5694 L -16.967,46.5017 L -16.9915,46.4326
 L -17.0123,46.3623 L -17.0294,46.2911 L -17.0428,46.219 L -17.0523,46.1463 L -17.0581,46.0733 L -17.06,46
 L -17.0581,45.9267 L -17.0523,45.8537 L -17.0428,45.781 L -17.0294,45.7089 L -17.0123,45.6376 L -16.9915,45.5674
 L -16.967,45.4983 L -16.939,45.4306 L -16.9074,45.3644 L -16.8724,45.3 L -16.8341,45.2375 L -16.7926,45.1771
 L -16.748,45.1189 L -16.7004,45.0632 L -16.6499,45.01 L -16.5968,44.9596 L -16.541,44.912 L -16.4829,44.8674
 L -16.4225,44.8259 L -16.36,44.7876 L -16.2956,44.7526 L -16.2294,44.721 L -16.1617,44.693 L -16.0926,44.6685
 L -16.0223,44.6477 L -15.9511,44.6306 L -15.879,44.6172 L -15.8063,44.6077 L -15.7333,44.6019 L -15.66,44.6
 L -15.5867,44.6019 L -15.5137,44.6077 L -15.441,44.6172 L -15.3689,44.6306 L -15.2977,44.6477 L -15.2274,44.6685
 L -15.1583,44.693 L -15.0906,44.721 L -15.0244,44.7526 L -14.96,44.7876 L -14.8975,44.8259 L -14.8371,44.8674
 L -14.7789,44.912 L -14.7232,44.9596 L -14.67,45.01 L -14.6196,45.0632 L -14.572,45.1189 L -14.5274,45.1771
 L -14.4859,45.2375 L -14.4476,45.3 L -14.4126,45.3644 L -14.381,45.4306 L -14.353,45.4983 L -14.3285,45.5674
 L -14.3077,45.6376 L -14.2906,45.7089 L -14.2772,45.781 L -14.2677,45.8537 L -14.2619,45.9267 L -14.26,46
 L -14.2619,46.0733 L -14.2677,46.1463 L -14.2772,46.219 L -14.2906,46.2911 L -14.3077,46.3623 L -14.3285,46.4326
 L -14.353,46.5017 L -14.381,46.5694 L -14.4126,46.6356 L -14.4476,46.7 L -14.4859,46.7625 L -14.5274,46.8229
 L -14.572,46.881 L -14.6196,46.9368 L -14.67,46.9899 L -14.7232,47.0404 L -14.7789,47.088 L -14.8371,47.1326
 L -14.8975,47.1741 L -14.96,47.2124 L -15.0244,47.2474 L -15.0906,47.279 L -15.1583,47.307 L -15.2274,47.3315
 L -15.2977,47.3523 L -15.3689,47.3694 L -15.441,47.3828 L -15.5137,47.3923 L -15.5867,47.3981 L -15.66,47.4
 z
M -53.7332,47.3981 L -53.8063,47.3923 L -53.879,47.3828 L -53.951,47.3694 L -54.0223,47.3523 L -54.0926,47.3315
 L -54.1617,47.307 L -54.2294,47.279 L -54.2956,47.2474 L -54.36,47.2124 L -54.4225,47.1741 L -54.4829,47.1326
 L -54.541,47.088 L -54.5968,47.0404 L -54.6499,46.9899 L -54.7004,46.9368 L -54.748,46.881 L -54.7926,46.8229
 L -54.8341,46.7625 L -54.8724,46.7 L -54.9074,46.6356 L -54.9389,46.5694 L -54.967,46.5017 L -54.9915,46.4326
 L -55.0123,46.3623 L -55.0294,46.2911 L -55.0427,46.219 L -55.0523,46.1463 L -55.0581,46.0733 L -55.06,46
 L -55.0581,45.9267 L -55.0523,45.8537 L -55.0427,45.781 L -55.0294,45.7089 L -55.0123,45.6376 L -54.9915,45.5674
 L -54.967,45.4983 L -54.9389,45.4306 L -54.9074,45.3644 L -54.8724,45.3 L -54.8341,45.2375 L -54.7926,45.1771
 L -54.748,45.1189 L -54.7004,45.0632 L -54.6499,45.01 L -54.5968,44.9596 L -54.541,44.912 L -54.4829,44.8674
 L -54.4225,44.8259 L -54.36,44.7876 L -54.2956,44.7526 L -54.2294,44.721 L -54.1617,44.693 L -54.0926,44.6685
 L -54.0223,44.6477 L -53.951,44.6306 L -53.879,44.6172 L -53.8063,44.6077 L -53.7332,44.6019 L -53.66,44.6
 L -53.5867,44.6019 L -53.5136,44.6077 L -53.441,44.6172 L -53.3689,44.6306 L -53.2976,44.6477 L -53.2274,44.6685
 L -53.1583,44.693 L -53.0905,44.721 L -53.0244,44.7526 L -52.96,44.7876 L -52.8975,44.8259 L -52.8371,44.8674
 L -52.7789,44.912 L -52.7232,44.9596 L -52.67,45.01 L -52.6196,45.0632 L -52.572,45.1189 L -52.5274,45.1771
 L -52.4858,45.2375 L -52.4475,45.3 L -52.4126,45.3644 L -52.381,45.4306 L -52.353,45.4983 L -52.3285,45.5674
 L -52.3077,45.6376 L -52.2906,45.7089 L -52.2772,45.781 L -52.2677,45.8537 L -52.2619,45.9267 L -52.26,46
 L -52.2619,46.0733 L -52.2677,46.1463 L -52.2772,46.219 L -52.2906,46.2911 L -52.3077,46.3623 L -52.3285,46.4326
 L -52.353,46.5017 L -52.381,46.5694 L -52.4126,46.6356 L -52.4475,46.7 L -52.4858,46.7625 L -52.5274,46.8229
 L -52.572,46.881 L -52.6196,46.9368 L -52.67,46.9899 L -52.7232,47.0404 L -52.7789,47.088 L -52.8371,47.1326
 L -52.8975,47.1741 L -52.96,47.2124 L -53.0244,47.2474 L -53.0905,47.279 L -53.1583,47.307 L -53.2274,47.3315
 L -53.2976,47.3523 L -53.3689,47.3694 L -53.441,47.3828 L -53.5136,47.3923 L -53.5867,47.3981 L -53.66,47.4
 z
M -58.0837,65.0978 L -58.1672,65.0912 L -58.2503,65.0803 L -58.3327,65.065 L -58.4141,65.0455 L -58.4944,65.0217
 L -58.5734,64.9937 L -58.6508,64.9617 L -58.7264,64.9256 L -58.8,64.8856 L -58.8714,64.8419 L -58.9404,64.7944
 L -59.0069,64.7434 L -59.0706,64.689 L -59.1314,64.6314 L -59.189,64.5706 L -59.2434,64.5069 L -59.2944,64.4404
 L -59.3419,64.3714 L -59.3856,64.3 L -59.4256,64.2264 L -59.4617,64.1508 L -59.4937,64.0734 L -59.5217,63.9944
 L -59.5455,63.9141 L -59.565,63.8327 L -59.5803,63.7503 L -59.5912,63.6672 L -59.5978,63.5837 L -59.6,63.5
 L -59.5978,63.4163 L -59.5912,63.3327 L -59.5803,63.2497 L -59.565,63.1673 L -59.5455,63.0859 L -59.5217,63.0056
 L -59.4937,62.9266 L -59.4617,62.8492 L -59.4256,62.7736 L -59.3856,62.7 L -59.3419,62.6286 L -59.2944,62.5595
 L -59.2434,62.4931 L -59.189,62.4294 L -59.1314,62.3686 L -59.0706,62.311 L -59.0069,62.2566 L -58.9404,62.2056
 L -58.8714,62.1581 L -58.8,62.1143 L -58.7264,62.0744 L -58.6508,62.0383 L -58.5734,62.0063 L -58.4944,61.9783
 L -58.4141,61.9545 L -58.3327,61.935 L -58.2503,61.9197 L -58.1672,61.9088 L -58.0837,61.9022 L -58,61.9
 L -57.9163,61.9022 L -57.8327,61.9088 L -57.7497,61.9197 L -57.6673,61.935 L -57.5859,61.9545 L -57.5056,61.9783
 L -57.4266,62.0063 L -57.3492,62.0383 L -57.2736,62.0744 L -57.2,62.1143 L -57.1286,62.1581 L -57.0595,62.2056
 L -56.9931,62.2566 L -56.9294,62.311 L -56.8686,62.3686 L -56.811,62.4294 L -56.7566,62.4931 L -56.7056,62.5595
 L -56.6581,62.6286 L -56.6143,62.7 L -56.5744,62.7736 L -56.5383,62.8492 L -56.5063,62.9266 L -56.4783,63.0056
 L -56.4545,63.0859 L -56.435,63.1673 L -56.4197,63.2497 L -56.4088,63.3327 L -56.4022,63.4163 L -56.4,63.5
 L -56.4022,63.5837 L -56.4088,63.6672 L -56.4197,63.7503 L -56.435,63.8327 L -56.4545,63.9141 L -56.4783,63.9944
 L -56.5063,64.0734 L -56.5383,64.1508 L -56.5744,64.2264 L -56.6143,64.3 L -56.6581,64.3714 L -56.7056,64.4404
 L -56.7566,64.5069 L -56.811,64.5706 L -56.8686,64.6314 L -56.9294,64.689 L -56.9931,64.7434 L -57.0595,64.7944
 L -57.1286,64.8419 L -57.2,64.8856 L -57.2736,64.9256 L -57.3492,64.9617 L -57.4266,64.9937 L -57.5056,65.0217
 L -57.5859,65.0455 L -57.6673,65.065 L -57.7497,65.0803 L -57.8327,65.0912 L -57.9163,65.0978 L -58,65.1
 z
M 54.4163,70.0978 L 54.3327,70.0912 L 54.2497,70.0803 L 54.1673,70.065 L 54.0859,70.0455 L 54.0056,70.0217
 L 53.9266,69.9937 L 53.8492,69.9617 L 53.7736,69.9256 L 53.7,69.8856 L 53.6286,69.8419 L 53.5595,69.7944
 L 53.4931,69.7434 L 53.4294,69.689 L 53.3686,69.6314 L 53.311,69.5706 L 53.2566,69.5069 L 53.2056,69.4404
 L 53.1581,69.3714 L 53.1143,69.3 L 53.0744,69.2264 L 53.0383,69.1508 L 53.0063,69.0734 L 52.9783,68.9944
 L 52.9545,68.9141 L 52.935,68.8327 L 52.9197,68.7503 L 52.9088,68.6672 L 52.9022,68.5837 L 52.9,68.5
 L 52.9022,68.4163 L 52.9088,68.3327 L 52.9197,68.2497 L 52.935,68.1673 L 52.9545,68.0859 L 52.9783,68.0056
 L 53.0063,67.9266 L 53.0383,67.8492 L 53.0744,67.7736 L 53.1143,67.7 L 53.1581,67.6286 L 53.2056,67.5595
 L 53.2566,67.4931 L 53.311,67.4294 L 53.3686,67.3686 L 53.4294,67.311 L 53.4931,67.2566 L 53.5595,67.2056
 L 53.6286,67.1581 L 53.7,67.1143 L 53.7736,67.0744 L 53.8492,67.0383 L 53.9266,67.0063 L 54.0056,66.9783
 L 54.0859,66.9545 L 54.1673,66.935 L 54.2497,66.9197 L 54.3327,66.9088 L 54.4163,66.9022 L 54.5,66.9
 L 54.5837,66.9022 L 54.6672,66.9088 L 54.7503,66.9197 L 54.8327,66.935 L 54.9141,66.9545 L 54.9944,66.9783
 L 55.0734,67.0063 L 55.1508,67.0383 L 55.2264,67.0744 L 55.3,67.1143 L 55.3714,67.1581 L 55.4404,67.2056
 L 55.5069,67.2566 L 55.5706,67.311 L 55.6314,67.3686 L 55.689,67.4294 L 55.7434,67.4931 L 55.7944,67.5595
 L 55.8419,67.6286 L 55.8856,67.7 L 55.9256,67.7736 L 55.9617,67.8492 L 55.9937,67.9266 L 56.0217,68.0056
 L 56.0455,68.0859 L 56.065,68.1673 L 56.0803,68.2497 L 56.0912,68.3327 L 56.0978,68.4163 L 56.1,68.5
 L 56.0978,68.5837 L 56.0912,68.6672 L 56.0803,68.7503 L 56.065,68.8327 L 56.0455,68.9141 L 56.0217,68.9944
 L 55.9937,69.0734 L 55.9617,69.1508 L 55.9256,69.2264 L 55.8856,69.3 L 55.8419,69.3714 L 55.7944,69.4404
 L 55.7434,69.5069 L 55.689,69.5706 L 55.6314,69.6314 L 55.5706,69.689 L 55.5069,69.7434 L 55.4404,69.7944
 L 55.3714,69.8419 L 55.3,69.8856 L 55.2264,69.9256 L 55.1508,69.9617 L 55.0734,69.9937 L 54.9944,70.0217
 L 54.9141,70.0455 L 54.8327,70.065 L 54.7503,70.0803 L 54.6672,70.0912 L 54.5837,70.0978 L 54.5,70.1
 z
" stroke="black" fill="lightgray" stroke-width="0.5"/>
</svg>
